# xmcd
#
# Track frame offsets: 
#        183
#        19248
#        39185
#        58830
#        81490
#        100153
#        119983
#        144628
#
# Disc length: 2162 seconds
#
# Revision: 1
# Processed by: cddbd v1.5.1PL2 Copyright (c) Steve Scherf et al.
# Submitted via: ExactAudioCopy v0.95b4
#
DISCID=72087008
DTITLE=Toño Rosario - Atado A Tí
DYEAR=1991
DGENRE=Merengue
TTITLE0=Bárbara
TTITLE1=Vívora del Mar
TTITLE2=Atado a Tí
TTITLE3=Otra Vez
TTITLE4=Muñeca Linda
TTITLE5=Pegaito
TTITLE6=Tu Mujer
TTITLE7=Mi Morenita
EXTD=YEAR: 1990
EXTT0=
EXTT1=
EXTT2=
EXTT3=
EXTT4=
EXTT5=
EXTT6=
EXTT7=
PLAYORDER=
